<?xml version="1.0" encoding="utf-8"?>
<!-- Generator: Adobe Illustrator 16.0.0, SVG Export Plug-In . SVG Version: 6.00 Build 0)  -->
<!DOCTYPE svg PUBLIC "-//W3C//DTD SVG 1.1//EN" "http://www.w3.org/Graphics/SVG/1.1/DTD/svg11.dtd">
<svg version="1.1" id="Capa_1" xmlns="http://www.w3.org/2000/svg" xmlns:xlink="http://www.w3.org/1999/xlink" x="0px" y="0px"
	 width="64px" height="64px" viewBox="0 0 64 64" enable-background="new 0 0 64 64" xml:space="preserve">
<g>
	<path d="M9.143,15.429C4.114,15.429,0,19.543,0,24.571v28.571c0,5.029,4.114,9.144,9.143,9.144h1.143V15.429H9.143z"/>
	<path d="M54.857,15.429h-1.144v46.857h1.144c5.028,0,9.143-4.114,9.143-9.144V24.571C64,19.543,59.886,15.429,54.857,15.429"/>
	<path d="M42.286,21.024c-1.328,0-2.404,1.076-2.404,2.404c0,1.327,1.076,2.403,2.404,2.403s2.403-1.076,2.403-2.403
		C44.689,22.101,43.614,21.024,42.286,21.024"/>
	<path d="M48,15.429V12c0-5.671-4.615-10.286-10.286-10.286H26.286C20.615,1.714,16,6.329,16,12v3.429h-2.286v46.857h36.572V15.429
		H48z M22.857,12c0-1.891,1.539-3.429,3.429-3.429h11.428c1.891,0,3.429,1.538,3.429,3.429v3.429H22.857V12z M46.857,28
		c0,0.628-0.364,1.506-0.809,1.95L35.094,40.906c-0.444,0.444-1.172,0.444-1.616,0l-8.669-8.67c-0.445-0.444-0.445-1.171,0-1.616
		l10.956-10.955c0.444-0.445,1.322-0.809,1.95-0.809h8c0.629,0,1.144,0.515,1.144,1.144V28z"/>
</g>
</svg>
