<?xml version="1.0" encoding="utf-8"?>
<!-- Generator: Adobe Illustrator 21.1.0, SVG Export Plug-In . SVG Version: 6.00 Build 0)  -->
<svg version="1.1" id="Capa_1" xmlns="http://www.w3.org/2000/svg" xmlns:xlink="http://www.w3.org/1999/xlink" x="0px" y="0px"
	 width="527.3px" height="49px" viewBox="0 0 527.3 49" enable-background="new 0 0 527.3 49" xml:space="preserve">
<path fill="#FFFFFF" d="M35.6,47.1H25.1L17.9,36c-0.8,0.1-1.8,0.2-2.6,0.2h-3.1v11H3.1V3h12.2C27.6,3,35,8.9,35,19.7
	c0,6.9-3,11.2-8.5,13.7L35.6,47.1z M15,28.2c7.4,0,10.6-2.3,10.6-8.6S22.3,11,15,11h-2.9v17.2H15z"/>
<path fill="#FFFFFF" d="M41.4,25.1c0-13,10.1-22.6,22.8-22.6S87,12,87,25.1S76.9,47.7,64.2,47.7S41.4,38.1,41.4,25.1z M77.7,25.1
	c0-8.2-5.4-14.5-13.5-14.5s-13.5,6.3-13.5,14.5s5.4,14.5,13.5,14.5S77.7,33.3,77.7,25.1z"/>
<path fill="#FFFFFF" d="M94.7,3h17c8.2,0,12.8,5.2,12.8,11.4c0,4.1-2.4,6.9-6.2,8.1c6,1.4,8.9,5.4,8.9,11c0,7.8-5.6,13.6-14.8,13.6
	H94.7V3z M110.8,19.3c2.9,0,4.9-1.6,4.9-4.1c0-2.5-1.6-4.1-4.4-4.1h-7.5v8.3H110.8z M112.2,39.1c3.7,0,6-2.5,6-6.1
	c0-3.6-2.4-6-6.5-6h-7.8v12.1H112.2z"/>
<path fill="#FFFFFF" d="M134.3,3h29.2v8h-20.1v14h17.7v7.8h-17.7v6.4h21v8h-30.1V3z"/>
<path fill="#FFFFFF" d="M205.3,47.1h-10.5L187.6,36c-0.8,0.1-1.8,0.2-2.6,0.2h-3.1v11h-9.1V3H185c12.3,0,19.7,5.9,19.7,16.7
	c0,6.9-3,11.2-8.5,13.7L205.3,47.1z M184.7,28.2c7.4,0,10.6-2.3,10.6-8.6S192,11,184.7,11h-2.9v17.2H184.7z"/>
<path fill="#FFFFFF" d="M222,11h-12.6V3h34.2v8h-12.6v36.1H222V11z"/>
<path fill="#FFFFFF" d="M246.2,25.1c0-13,10.1-22.6,22.8-22.6s22.8,9.6,22.8,22.6S281.7,47.7,269,47.7S246.2,38.1,246.2,25.1z
	 M282.5,25.1c0-8.2-5.4-14.5-13.5-14.5s-13.5,6.3-13.5,14.5S261,39.6,269,39.6S282.5,33.3,282.5,25.1z"/>
<path fill="#FFFFFF" d="M313.9,2.6h0.7l21.7,23.9l21.4-23.9h0.8v44.5h-8.8V30.6c0-3,0.3-7.7,0.3-7.7s-2.7,3.9-4.7,6.2l-8.8,9.8h-0.8
	l-8.8-9.8c-2.1-2.3-4.7-6.2-4.7-6.2s0.3,4.7,0.3,7.7v16.5h-8.7V2.6z"/>
<path fill="#FFFFFF" d="M383.8,2.6h0.8l20.2,44.5h-9.5l-2.1-5h-17.9l-2.1,5h-8.8L383.8,2.6z M389.9,34.5l-3.2-7.6
	c-1.3-3.1-2.7-7.9-2.7-7.9s-1.3,4.8-2.6,7.9l-3.2,7.6H389.9z"/>
<path fill="#FFFFFF" d="M410.7,3h9.1v36.1h20v8h-29V3z"/>
<path fill="#FFFFFF" d="M443,25.1c0-13,10-22.6,22.7-22.6c8,0,13.7,2.9,17.6,9l-6.9,4.9c-2.1-3.4-5.6-5.8-10.7-5.8
	c-8,0-13.4,6.2-13.4,14.4s5.4,14.5,13.4,14.5c5.7,0,8.9-2.7,11.3-6.5l7.1,4.9c-3.8,6-9.9,9.7-18.4,9.7C453,47.7,443,38.1,443,25.1z"
	/>
<path fill="#FFFFFF" d="M505,2.6h0.8L526,47.1h-9.5l-2.1-5h-17.9l-2.1,5h-8.8L505,2.6z M511.1,34.5l-3.2-7.6
	c-1.3-3.1-2.7-7.9-2.7-7.9s-1.3,4.8-2.6,7.9l-3.2,7.6H511.1z"/>
</svg>
