<?xml version="1.0" standalone="no"?>
<!DOCTYPE svg PUBLIC "-//W3C//DTD SVG 1.1//EN" "http://www.w3.org/Graphics/SVG/1.1/DTD/svg11.dtd">
<svg xmlns="http://www.w3.org/2000/svg">
<metadata>Generated by Fontastic.me</metadata>
<defs>
<font id="idx-boost-icons" horiz-adv-x="512">
<font-face font-family="idx-boost-icons" units-per-em="512" ascent="480" descent="-32"/>
<missing-glyph horiz-adv-x="512" />

<glyph glyph-name="darrow" unicode="&#97;" d="M512 360l-48 48-209-209-207 209-48-48 256-256z"/>
<glyph glyph-name="carrow" unicode="&#99;" d="M475 439l0-128c0-5-1-9-5-13-4-4-8-5-13-5l-128 0c-8 0-13 3-17 11-3 7-2 14 4 20l40 39c-28 26-62 39-100 39-20 0-39-4-57-11-18-8-33-18-46-32-14-13-24-28-32-46-7-18-11-37-11-57 0-20 4-39 11-57 8-18 18-33 32-46 13-14 28-24 46-32 18-7 37-11 57-11 23 0 44 5 64 15 20 9 38 23 51 42 2 1 4 3 7 3 3 0 5-1 7-3l39-39c2-2 3-3 3-6 0-2-1-4-2-6-21-25-46-45-76-59-29-14-60-20-93-20-30 0-58 5-85 17-27 12-51 27-70 47-20 19-35 43-47 70-12 27-17 55-17 85 0 30 5 58 17 85 12 27 27 51 47 70 19 20 43 35 70 47 27 12 55 17 85 17 28 0 55-5 81-15 26-11 50-26 70-45l37 37c6 6 12 7 20 4 8-4 11-9 11-17z"/>
<glyph glyph-name="save" unicode="&#100;" d="M448 96l32 0 0-32-32 0z m-384 128l352 0 0-192-352 0z m64 288l256 0 0-160-256 0z m-128 0l0-512 512 0 0 448-64 64z m288-32l64 0 0-96-64 0z m-160-384l224 0 0-32-224 0z m0 64l160 0 0-32-160 0z"/>
<glyph glyph-name="search" unicode="&#98;" d="M498 14c-19-19-49-19-68 0l-85 85c-35-22-76-36-121-36-124 0-224 101-224 225 0 124 100 224 224 224 124 0 225-100 225-224 0-45-14-86-36-121l85-85c19-19 19-49 0-68z m-274 434c-88 0-160-72-160-160 0-89 72-161 160-161 89 0 161 72 161 161 0 88-72 160-161 160z"/>
<glyph glyph-name="map" unicode="&#101;" d="M426 314c0 23-5 45-14 66-8 20-20 38-36 54-16 15-34 28-54 36-21 9-43 14-66 14-23 0-45-5-66-14-20-8-38-21-54-36-16-16-28-34-36-54-9-21-14-43-14-66 0-23 5-45 14-66 4-12 10-22 17-32l112-171c15-22 39-22 54 0l112 171c7 10 13 20 17 32 9 21 14 43 14 66z m-125-45c-12-12-28-19-45-19-17 0-33 7-45 19-12 12-18 28-18 45 0 17 6 32 18 44 12 12 28 19 45 19 17 0 33-7 45-19 12-12 18-27 18-44 0-17-6-33-18-45z"/>
<glyph glyph-name="grid" unicode="&#103;" d="M155 422l-54 0c-6 0-11-5-11-11l0-54c0-6 5-12 11-12l54 0c6 0 12 6 12 12l0 54c0 6-6 11-12 11z m128 0l-54 0c-6 0-11-5-11-11l0-54c0-6 5-12 11-12l54 0c6 0 11 6 11 12l0 54c0 6-5 11-11 11z m139-11c0 6-5 11-11 11l-54 0c-6 0-12-5-12-11l0-54c0 0 0 0 0 0 0-6 6-12 12-12l54 0c6 0 11 6 11 12l0 54z m-267-117l-54 0c-6 0-11-5-11-11l0-54c0-6 5-11 11-11l54 0c6 0 12 5 12 11l0 54c0 6-6 11-12 11z m128 0l-54 0c-6 0-11-5-11-11l0-54c0-6 5-11 11-11l54 0c6 0 11 5 11 11l0 54c0 6-5 11-11 11z m128 0l-54 0c-6 0-12-5-12-11l0-54c0 0 0 0 0 0 0-6 6-11 12-11l54 0c6 0 11 5 11 11l0 54c0 6-5 11-11 11z m-256-127l-54 0c-6 0-11-6-11-12l0-54c0-6 5-11 11-11l54 0c6 0 12 5 12 11l0 54c0 6-6 12-12 12z m128 0l-54 0c-6 0-11-6-11-12l0-54c0-6 5-11 11-11l54 0c6 0 11 5 11 11l0 54c0 6-5 12-11 12z m128 0l-54 0c-6 0-12-6-12-12l0-54c0-6 6-11 12-11l54 0c6 0 11 5 11 11l0 54c0 6-5 12-11 12z"/>
<glyph glyph-name="arrow" unicode="&#102;" d="M128 512l160-257-160-255 256 256z"/>
<glyph glyph-name="heart" unicode="&#104;" d="M256 21l-12 12c-2 1-157 157-178 177-44 44-66 89-66 137 0 79 65 144 144 144 44 0 85-20 112-53 27 33 68 53 112 53 79 0 144-65 144-144 0-48-22-93-66-137-21-20-176-176-178-178z m-112 436c-61 0-110-49-110-110 0-38 19-75 57-113 18-16 128-128 166-165 37 37 148 148 165 165 38 38 56 75 56 113 0 61-49 110-110 110-40 0-77-22-96-57l-16-29-16 29c-19 35-56 57-96 57z"/>
<glyph glyph-name="heart-active" unicode="&#105;" d="M136 486c-75 0-136-60-136-136 0-47 22-90 66-134 21-21 179-179 190-190 10 10 169 168 190 190 44 44 66 87 66 134 0 76-61 136-136 136-50 0-95-27-119-70l-1-2-1 2c-24 43-69 70-119 70z"/>
<glyph glyph-name="tarrow" unicode="&#106;" d="M289 119c0-3-1-5-3-7l-14-14c-2-2-4-3-7-3-2 0-5 1-6 3l-134 133c-1 2-2 4-2 7 0 2 1 4 2 6l134 133c1 2 4 3 6 3 3 0 5-1 7-3l14-14c2-2 3-4 3-6 0-3-1-5-3-7l-112-112 112-113c2-1 3-4 3-6z m110 0c0-3-1-5-3-7l-15-14c-1-2-4-3-6-3-3 0-5 1-7 3l-133 133c-2 2-3 4-3 7 0 2 1 4 3 6l133 133c2 2 4 3 7 3 2 0 5-1 6-3l15-14c2-2 3-4 3-6 0-3-1-5-3-7l-113-112 113-113c2-1 3-4 3-6z"/>
<glyph glyph-name="building" unicode="&#107;" d="M62 512l0-512 388 0 0 512z m162-450l-90 0 0 89 90 0z m0 151l-90 0 0 89 90 0z m0 149l-90 0 0 91 90 0z m154-300l-90 0 0 89 90 0z m0 151l-90 0 0 89 90 0z m0 149l-90 0 0 91 90 0z"/>
<glyph glyph-name="facebook" unicode="&#108;" d="M384 509l0-76-45 0c-17 0-28-3-33-10-6-7-9-17-9-31l0-54 84 0-11-85-73 0 0-216-87 0 0 216-73 0 0 85 73 0 0 62c0 36 10 63 29 83 20 19 47 29 80 29 28 0 49-1 65-3z"/>
<glyph glyph-name="twitter" unicode="&#109;" d="M481 395c-13-18-28-34-46-47 0-3 0-7 0-12 0-25-3-50-11-74-7-25-18-49-33-71-14-23-32-43-52-61-21-17-45-31-74-41-29-11-60-16-92-16-52 0-99 14-142 42 7-1 14-2 22-2 43 0 81 14 115 40-20 0-38 6-54 18-16 12-27 27-33 46 7-1 13-2 18-2 8 0 16 1 24 4-21 4-39 15-53 31-14 17-21 37-21 59l0 1c13-7 27-11 42-11-13 8-23 19-30 32-8 14-11 29-11 44 0 17 4 33 12 47 23-28 51-51 84-68 33-17 69-27 107-29-2 8-3 15-3 22 0 25 9 47 27 65 18 18 40 27 66 27 26 0 49-10 67-29 21 4 40 11 59 22-7-22-21-39-41-51 18 2 35 7 53 14z"/>
<glyph glyph-name="calculator" unicode="&#110;" d="M397 512l-282 0c-25 0-45-20-45-45l0-422c0-25 20-45 45-45l283 0c24 0 44 20 44 45l0 422c0 25-20 45-45 45z m-203-436c0-11-9-20-20-20l-25 0c-11 0-20 9-20 20l0 25c0 11 9 20 20 20l25 0c11 0 20-9 20-20z m0 91c0-11-9-20-20-20l-25 0c-11 0-20 9-20 20l0 25c0 11 9 20 20 20l25 0c11 0 20-9 20-20z m0 91c0-12-9-20-20-20l-25 0c-11 0-20 8-20 20l0 24c0 12 9 20 20 20l25 0c11 0 20-8 20-20z m94-182c0-11-9-20-20-20l-25 0c-11 0-20 9-20 20l0 25c0 11 9 20 20 20l25 0c11 0 20-9 20-20z m0 91c0-11-9-20-20-20l-25 0c-11 0-20 9-20 20l0 25c0 11 9 20 20 20l25 0c11 0 20-9 20-20z m0 91c0-12-9-20-20-20l-25 0c-11 0-20 8-20 20l0 24c0 12 9 20 20 20l25 0c11 0 20-8 20-20z m94-182c0-11-8-20-20-20l-24 0c-12 0-20 9-20 20l0 25c0 11 8 20 20 20l24 0c12 0 20-9 20-20z m0 91c0-11-8-20-20-20l-24 0c-12 0-20 9-20 20l0 25c0 11 8 20 20 20l24 0c12 0 20-9 20-20z m0 91c0-12-8-20-20-20l-24 0c-12 0-20 8-20 20l0 24c0 12 8 20 20 20l24 0c12 0 20-8 20-20z m3 134c0-11-9-20-20-20l-218 0c-11 0-20 9-20 20l0 44c0 11 9 20 20 20l219 0c11 0 20-9 20-20l0-44z"/>
<glyph glyph-name="close-modal" unicode="&#111;" d="M309 345l-53-53-53 53c-9 9-25 9-36 0-9-10-9-26 0-36l53-53-53-53c-9-9-9-25 0-36 10-9 26-9 36 0l53 53 53-53c9-9 25-9 36 0 9 10 9 26 0 36l-53 53 53 53c9 9 9 25 0 36-10 9-26 9-36 0z m-53 167c-142 0-256-114-256-256 0-142 114-256 256-256 142 0 256 114 256 256 0 142-114 256-256 256z m0-468c-117 0-212 95-212 212 0 117 95 212 212 212 117 0 212-95 212-212 0-117-95-212-212-212z"/>
<glyph glyph-name="email" unicode="&#112;" d="M334 190l-157 0 42-38 43 0-32 0 64 0-1 0z m22 19l62 55 0 153c0 10-9 19-20 19l-284 0c-11 0-20-9-20-19l0-155 60-53z m-165 246l65 57 65-57 77 0c21 0 38-17 38-37l0-64 57-51 0-265c0-21-17-38-39-38l-397 0c-21 0-38 17-38 38l0 265 57 51 0 64c0 20 17 37 38 37z m102 0l-37 32-37-32z m143-126l0-51 29 26z m-360-51l0 51-29-25z m123-145l-133-114 380 0-133 114z m269-109c4 3 6 8 6 14l0 247-152-133z m-424 0l146 127-152 133 0-246c0-5 2-10 6-14z m89 355l0-19 246 0 0 19z m0-57l0-19 246 0 0 19z m0-56l0-20 246 0 0 20z"/>
<glyph glyph-name="full-screen" unicode="&#113;" d="M252 202c0-2-2-5-3-8l-111-110 48-48c4-4 6-10 6-15 0-12-10-22-22-22l-148 0c-12 1-22 11-22 23l0 148c0 12 10 22 22 22 5 0 11-2 15-6l48-48 110 110c3 2 5 3 8 3 3 0 6-1 8-3l39-38c0-2 2-4 2-8z m260 288l0-149c0-12-10-22-22-22-5 0-11 3-15 7l-48 48-110-110c-3-2-5-3-8-3-3 0-6 1-8 3l-37 38c-2 1-3 4-3 8 0 2 1 5 3 8l110 110-48 48c-4 4-6 9-6 14 0 12 10 22 22 22l149 0c11 0 21-10 21-22z"/>
<glyph glyph-name="open-link" unicode="&#114;" d="M70 512l163 0c6 0 12-2 17-7 4-4 6-10 6-16 0-7-2-12-7-17-5-5-11-7-17-7l-162 0c-7 0-12-3-17-7-4-4-7-9-7-16l0-372c0-6 3-12 8-16 4-5 10-7 16-7l372 0c7 0 12 3 17 7 5 4 7 10 7 16l0 163c0 6 3 12 7 17 5 4 10 7 17 7 6 0 12-3 16-7 5-5 8-11 8-17l0-163c0-20-8-36-21-50-14-14-31-21-50-21l-373 0c-20 0-36 7-50 21-13 14-20 30-20 50l0 372c0 20 7 36 21 50 13 14 29 20 49 20z m279 0l140 0c6 0 12-2 17-7 4-4 6-10 6-16l0-140c0-7-2-12-7-17-5-5-11-7-17-7-6 0-12 2-17 7-5 5-6 10-6 17l0 84-193-194c-5-5-10-6-16-6-6 0-12 2-17 6-5 4-6 10-6 17 0 6 2 12 6 16l194 194-84 0c-7 0-12 2-17 7-5 5-7 10-7 17 0 6 2 12 7 16 5 4 10 6 17 6z"/>
<glyph glyph-name="print" unicode="&#115;" d="M128 480l256 0 0-64-256 0z m352-96l-448 0c-18 0-32-14-32-32l0-160c0-18 14-32 32-32l96 0 0-128 256 0 0 128 96 0c18 0 32 14 32 32l0 160c0 18-14 32-32 32z m-416-96c-18 0-32 14-32 32 0 18 14 32 32 32 18 0 32-14 32-32 0-18-14-32-32-32z m288-224l-192 0 0 160 192 0z"/>
<glyph glyph-name="share" unicode="&#116;" d="M384 219c25 0 47-8 65-26 18-18 26-40 26-65 0-25-8-47-26-65-18-18-40-26-65-26-25 0-47 8-65 26-18 18-26 40-26 65 0 2 0 6 0 10l-103 51c-17-16-38-24-62-24-25 0-47 8-65 26-18 18-26 40-26 65 0 25 8 47 26 65 18 18 40 26 65 26 24 0 45-8 62-24l103 51c0 4 0 8 0 10 0 25 8 47 26 65 18 18 40 26 65 26 25 0 47-8 65-26 18-18 26-40 26-65 0-25-8-47-26-65-18-18-40-26-65-26-24 0-45 8-62 24l-103-51c0-4 0-8 0-10 0-2 0-6 0-10l103-51c17 16 38 24 62 24z"/>
<glyph glyph-name="email2" unicode="&#117;" d="M469 427l-426 0c-24 0-43-19-43-43l0-256c0-24 19-43 43-43l426 0c24 0 43 19 43 43l0 256c0 24-19 43-43 43z m22-299c0-12-10-21-22-21l-426 0c-12 0-22 9-22 21l0 256c0 12 10 21 22 21l426 0c12 0 22-9 22-21z m-45 208c-3 5-10 7-14 4l-176-114-176 114c-4 3-11 1-14-4-3-4-2-11 3-14l187-121 187 121c5 3 6 10 3 14z m-292-103l-96-64c-5-3-6-10-3-15 2-3 6-5 9-5 2 0 4 1 6 2l96 64c5 3 6 10 3 15-3 5-10 6-15 3z m204 0c-5 3-12 2-15-3-3-5-2-12 3-15l96-64c2-1 4-2 6-2 3 0 7 2 9 5 3 5 2 12-3 15z"/>
<glyph glyph-name="check" unicode="&#118;" d="M211 205l-51 51-32-32 83-80 173 192-32 32z m45 307c-141 0-256-115-256-256 0-141 115-256 256-256 141 0 256 115 256 256 0 141-115 256-256 256z m0-472c-119 0-216 97-216 216 0 119 97 216 216 216 119 0 216-97 216-216 0-119-97-216-216-216z"/>
<glyph glyph-name="checkb" unicode="&#119;" d="M212 77c-11 0-21 5-28 14 0 0-92 121-92 121-6 8-8 17-6 27 1 9 5 17 13 23 7 6 16 9 26 7 10-1 18-6 24-14 0 0 60-79 60-79 0 0 152 243 152 243 5 8 13 13 22 15 9 2 18 1 27-4 8-5 13-13 15-22 3-9 1-18-4-27 0 0-179-287-179-287-7-11-16-16-28-16 0 0-2-1-2-1"/>
<glyph glyph-name="emailup" unicode="&#120;" d="M347 390l-44 0 0-102c0-8-6-14-14-14l-67 0c-8 0-14 6-14 14l0 102-44 0c-8 0-10 4-5 11l35 41c4 5 13 16 18 21l35 41c5 6 14 6 19 0l34-41c5-5 14-16 18-21l35-41c5-6 2-11-6-11z m165-69l0-279c0-13-6-24-17-32-6-4-13-6-21-6l-436 0c-8 0-16 2-22 6-10 7-16 18-16 31l0 280c0 13 6 24 17 31 6 4 13 6 21 6l152 0 0-33-109 0 121-121 24-23 26-27c1 0 2-1 3-1 1 0 3 0 3 1l50 50 122 121-108 0 0 33 152 0c8 0 16-2 22-6 10-7 16-18 16-31z m-334-140l-144 143c0-1-1-2-1-3l0-279c0-2 1-3 1-4z m253-144l-121 121-27-27c-8-8-17-11-27-11-10 0-19 4-27 11l-27 27-121-121z m47 284c0 1 0 2-1 3l-144-143 144-143c1 0 1 2 1 3z"/>
<glyph glyph-name="filters" unicode="&#121;" d="M151 454c-5 31-33 54-65 54-38 1-68-30-68-66 0-37 30-68 67-68 33 0 60 24 65 55l350 0 0 25z m228-134c-33 0-60-23-65-54l-296 0 0-26 295 0c6-31 33-54 65-54 33 0 60 23 66 54l55 0 0 26-55 0c-5 31-32 54-65 54z m-187-186c-33 0-60-23-66-54l-108 0 0-26 108 0c6-31 32-54 65-54 33 0 60 23 66 54l242 0 0 26-241 0c-6 30-33 54-66 54z"/>
</font>
</defs>
</svg>
